<?xml version="1.0" standalone="no"?>
<!DOCTYPE svg PUBLIC "-//W3C//DTD SVG 20010904//EN"
 "http://www.w3.org/TR/2001/REC-SVG-20010904/DTD/svg10.dtd">
<svg version="1.0" xmlns="http://www.w3.org/2000/svg"
 width="612.000000pt" height="612.000000pt" viewBox="0 0 612.000000 612.000000"
 preserveAspectRatio="xMidYMid meet">
<metadata>
Created by potrace 1.14, written by Peter Selinger 2001-2017
</metadata>
<g transform="translate(0.000000,612.000000) scale(0.100000,-0.100000)"
fill="#000000" stroke="none">
<path d="M2762 5883 c-50 -165 -73 -251 -91 -339 -10 -52 -21 -97 -24 -100 -3
-3 -15 11 -27 33 -24 44 -20 21 13 -71 24 -68 11 -78 125 87 84 123 104 169
104 255 0 49 -7 77 -33 132 -17 39 -35 70 -40 70 -4 0 -16 -30 -27 -67z"/>
<path d="M3156 5908 c-4 -18 -14 -62 -22 -98 -29 -126 -52 -275 -44 -289 8
-15 57 54 105 148 38 76 30 182 -19 252 -14 20 -14 20 -20 -13z"/>
<path d="M3323 5903 c-18 -7 -17 -63 1 -63 27 0 47 29 36 51 -11 19 -16 21
-37 12z"/>
<path d="M2367 5843 c-4 -3 -7 -24 -7 -47 0 -35 6 -46 53 -89 48 -46 52 -48
55 -27 2 13 1 43 -3 68 -9 63 -71 123 -98 95z"/>
<path d="M3486 5588 c-49 -145 -118 -330 -153 -412 -35 -82 -62 -151 -59 -153
6 -6 113 82 189 156 79 77 139 164 169 247 17 46 22 82 22 164 1 94 -2 113
-29 179 -17 41 -35 76 -40 78 -6 2 -50 -115 -99 -259z"/>
<path d="M3753 5764 c-3 -8 2 -23 11 -32 15 -15 17 -15 32 0 21 21 11 48 -16
48 -11 0 -23 -7 -27 -16z"/>
<path d="M2110 5733 c-47 -103 -63 -170 -67 -295 -6 -153 10 -238 66 -354 47
-97 108 -179 198 -265 62 -59 192 -159 207 -159 3 0 5 24 5 53 -1 46 -2 48 -8
17 -6 -35 -6 -34 -58 66 -60 119 -101 241 -184 552 -58 218 -124 412 -139 412
-4 0 -13 -12 -20 -27z"/>
<path d="M1914 5665 c-7 -18 3 -35 21 -35 18 0 26 15 19 34 -8 20 -33 21 -40
1z"/>
<path d="M4121 5634 c-43 -18 -99 -63 -219 -176 -51 -48 -111 -100 -132 -115
-67 -47 -57 -51 73 -28 159 28 237 73 269 154 19 51 55 181 49 181 -3 -1 -21
-7 -40 -16z"/>
<path d="M4296 5490 l-66 -80 32 7 c53 9 94 32 107 59 13 30 15 94 2 94 -5 0
-39 -36 -75 -80z"/>
<path d="M1657 5508 c8 -75 30 -116 77 -146 39 -25 177 -74 185 -66 18 17
-225 264 -260 264 -4 0 -5 -24 -2 -52z"/>
<path d="M2922 5346 c-6 -77 -21 -244 -32 -371 -23 -263 -37 -754 -22 -781 8
-15 15 -8 40 42 49 97 122 271 153 363 66 193 80 400 40 556 -23 88 -82 215
-134 286 l-33 47 -12 -142z"/>
<path d="M1506 5434 c-4 -10 -1 -24 7 -31 19 -19 49 -5 45 21 -4 27 -43 34
-52 10z"/>
<path d="M4593 5388 c-11 -13 -57 -77 -102 -143 -45 -66 -93 -135 -108 -153
l-27 -34 85 7 c67 6 91 12 118 33 53 40 76 101 75 205 -1 99 -10 118 -41 85z"/>
<path d="M1405 5275 c-92 -23 -89 -20 -57 -67 16 -24 44 -72 63 -108 40 -77
136 -178 199 -210 96 -49 150 -61 320 -71 91 -5 171 -12 178 -14 6 -2 12 -2
12 1 0 17 -87 183 -130 247 -64 95 -124 148 -220 195 -71 34 -81 36 -190 39
-77 2 -135 -2 -175 -12z"/>
<path d="M4740 5269 c0 -25 33 -22 38 4 2 12 -3 17 -17 17 -15 0 -21 -6 -21
-21z"/>
<path d="M4840 5100 c-56 -50 -73 -60 -64 -37 3 8 0 26 -5 40 -9 23 -8 27 6
27 9 0 13 3 9 7 -13 14 -73 -29 -95 -67 -17 -31 -45 -167 -36 -177 1 -2 28 2
60 8 125 23 182 79 192 188 3 34 2 61 -3 61 -5 0 -34 -23 -64 -50z"/>
<path d="M1090 5102 c0 -22 82 -132 121 -164 47 -38 141 -95 201 -123 21 -9
36 -20 34 -24 -2 -3 6 -6 18 -6 19 0 16 9 -38 100 -71 119 -146 199 -202 214
-46 13 -134 15 -134 3z"/>
<path d="M5020 5065 c-15 -18 -5 -35 21 -35 12 0 19 7 19 19 0 24 -25 34 -40
16z"/>
<path d="M4505 4889 c-4 -6 -5 -12 -2 -15 2 -3 7 2 10 11 7 17 1 20 -8 4z"/>
<path d="M785 4803 c-284 -344 -511 -860 -584 -1328 -100 -644 -15 -1232 259
-1774 300 -595 846 -1109 1460 -1374 395 -170 891 -257 1295 -227 506 37 919
171 1330 429 163 103 281 197 423 335 116 114 285 297 305 333 4 6 -3 36 -16
65 -13 29 -50 145 -81 258 -32 113 -67 237 -78 275 l-21 70 -15 -40 c-12 -30
-17 -92 -20 -245 -2 -113 -7 -208 -11 -212 -4 -5 -39 21 -78 57 l-72 65 -114
-168 -115 -169 -109 -61 c-59 -34 -151 -87 -203 -117 -52 -30 -98 -55 -102
-55 -4 0 41 73 100 163 59 89 142 221 185 292 69 117 86 137 158 195 44 36 91
74 105 86 l25 20 -55 115 c-113 238 -138 379 -96 543 26 104 62 167 132 231
67 63 143 95 238 102 l65 5 135 -77 c74 -43 144 -84 155 -91 14 -10 57 -14
161 -14 l142 0 119 128 c146 155 181 200 162 207 -21 7 -228 11 -223 4 6 -10
-56 -50 -68 -43 -6 4 -8 3 -5 -3 8 -13 -101 -100 -136 -108 -24 -6 -27 -4 -27
18 0 24 -30 117 -111 340 l-42 118 29 61 c34 71 72 100 158 118 l57 12 -6 41
c-4 23 -2 78 4 122 5 44 8 82 5 84 -3 3 -97 7 -209 9 l-205 4 -118 -123 -118
-122 -12 174 c-7 96 -15 238 -19 317 l-6 143 -38 30 c-164 130 -391 128 -659
-5 -150 -75 -219 -128 -359 -276 -228 -241 -351 -300 -623 -300 -205 0 -301
31 -531 168 -230 138 -471 247 -616 278 -208 44 -419 -9 -573 -143 -138 -121
-286 -214 -360 -228 -31 -6 -43 -2 -72 20 -20 15 -42 25 -51 22 -8 -4 -17 -2
-19 2 -3 5 23 20 58 35 93 40 210 115 291 186 39 34 71 65 73 70 2 5 -20 0
-48 -11 -97 -37 -222 -52 -385 -46 -129 5 -175 11 -325 46 -96 23 -186 44
-200 47 -21 5 -14 11 58 48 121 64 228 111 307 136 116 36 110 32 83 55 -13
12 -17 13 -10 4 11 -14 6 -17 -40 -23 -89 -10 -158 -7 -193 10 -19 8 -59 43
-90 76 l-57 60 34 28 c72 62 128 85 203 85 93 -1 131 -22 262 -146 86 -82 120
-107 196 -144 51 -24 121 -51 157 -59 86 -21 234 -20 396 1 l131 16 -63 144
c-82 188 -115 244 -194 323 -106 106 -217 153 -391 166 -105 8 -209 -11 -353
-65 -132 -50 -156 -56 -156 -37 0 9 41 58 90 109 50 52 90 98 90 103 0 10 -82
94 -92 94 -4 0 -33 -30 -63 -67z m3867 -803 c21 -6 52 -23 69 -37 33 -28 68
-93 69 -126 0 -15 -6 -12 -26 13 -104 123 -302 79 -374 -83 -22 -50 -30 -37
-19 31 16 102 72 166 172 198 53 16 63 16 109 4z m-530 -246 c16 -34 0 -58
-40 -62 -26 -3 -34 2 -43 21 -16 36 3 67 42 67 22 0 32 -6 41 -26z m-1704
-186 c25 -37 45 -49 131 -87 55 -24 101 -46 101 -50 0 -3 -35 -18 -78 -32 -42
-15 -98 -35 -124 -45 -26 -10 -51 -15 -55 -11 -4 4 0 36 10 69 9 34 15 63 14
64 -1 0 -39 -4 -84 -9 -46 -6 -86 -8 -89 -4 -8 8 116 145 133 146 7 1 25 -18
41 -41z m1607 -63 c33 -41 73 -84 89 -96 l29 -22 -98 -46 -98 -46 -79 40 c-43
22 -78 42 -78 45 0 3 36 45 80 95 44 49 80 93 80 97 0 19 19 2 75 -67z m-2965
-112 c23 -62 39 -116 37 -120 -3 -5 -22 -17 -41 -27 -35 -19 -39 -19 -91 -2
-30 9 -57 21 -60 27 -4 5 15 73 41 151 55 163 42 166 114 -29z m-430 51 c0 -5
-25 -22 -55 -36 -50 -23 -59 -25 -83 -13 -15 8 -40 19 -57 25 l-30 12 48 42
48 41 65 -30 c35 -16 64 -35 64 -41z m1675 -12 c-3 -3 -11 0 -18 7 -9 10 -8
11 6 5 10 -3 15 -9 12 -12z m803 -422 c50 -69 92 -128 92 -132 0 -5 -21 -8
-47 -8 -27 0 -85 -3 -130 -7 l-83 -6 0 -387 c0 -335 2 -389 15 -394 14 -5 74
76 196 265 20 31 46 67 57 80 12 13 63 84 114 158 51 74 98 136 105 139 30 9
107 -312 125 -522 13 -156 1 -372 -23 -387 -18 -11 -31 -7 -38 12 -3 12 -1 12
14 -1 17 -13 18 -13 10 0 -37 66 -67 99 -83 94 -14 -5 -14 -4 -3 4 12 9 9 19
-20 64 -19 29 -50 76 -69 105 -18 29 -36 50 -41 48 -4 -3 -5 5 -2 17 3 18 2
20 -5 8 -13 -20 -37 -169 -28 -177 3 -3 6 4 6 17 0 18 3 21 12 12 9 -9 9 -18
-1 -39 -10 -22 -14 -24 -22 -12 -7 12 -9 12 -9 -2 0 -8 -6 -60 -14 -115 -20
-141 -27 -233 -16 -209 5 11 9 38 10 60 l2 40 9 -32 c9 -30 13 -33 48 -33 22
0 41 -5 44 -12 3 -7 8 2 12 19 6 26 12 32 31 31 20 -2 16 -9 -40 -68 -182
-188 -170 -172 -216 -292 -24 -62 -60 -162 -80 -221 l-37 -109 -16 74 c-10 40
-26 127 -38 193 -11 66 -22 127 -24 135 -2 8 -9 76 -15 150 -5 74 -12 153 -15
175 -3 21 -2 36 2 31 8 -7 9 -11 12 -38 0 -6 4 -8 8 -5 3 4 12 2 18 -3 7 -6
-1 17 -19 50 -17 33 -33 60 -36 60 -3 0 -34 -87 -69 -193 -83 -247 -88 -260
-106 -250 -18 10 -88 100 -174 223 l-66 95 -3 277 -3 277 -57 -57 c-168 -166
-180 -176 -196 -162 -22 17 -24 52 29 -414 14 -126 24 -233 23 -237 -2 -5 -34
18 -73 51 -73 62 -85 69 -85 47 0 -14 50 -353 73 -498 12 -74 12 -88 -1 -107
-11 -17 -12 -22 -2 -22 8 0 10 -3 7 -7 -4 -3 1 -12 11 -19 9 -7 14 -14 10 -14
-14 0 -78 62 -72 71 3 5 -1 6 -8 4 -14 -6 -78 54 -75 69 1 5 -7 10 -17 12 -11
1 -48 31 -83 66 l-64 63 6 75 c13 161 17 207 24 263 l8 58 -91 63 c-118 81
-173 112 -182 103 -4 -4 6 -42 24 -85 17 -42 45 -115 62 -162 38 -104 109
-270 124 -289 27 -35 -143 96 -252 194 -19 16 -37 30 -40 30 -4 0 -45 22 -92
47 -97 53 -294 148 -308 148 -8 0 -101 343 -118 433 -3 20 -9 39 -13 41 -10 6
-50 -32 -115 -109 l-59 -69 6 159 c11 260 18 325 34 325 27 0 371 -180 378
-198 3 -9 31 -88 61 -174 52 -151 96 -269 133 -353 10 -22 33 -82 51 -133 37
-104 52 -115 27 -20 -9 35 -30 131 -47 213 -32 160 -32 160 -93 305 -53 128
-69 230 -62 400 3 74 8 145 11 158 l5 23 27 -20 c15 -10 79 -63 143 -118 63
-54 125 -105 137 -113 16 -11 28 -37 41 -90 23 -95 115 -393 135 -440 9 -19
24 -45 34 -58 l18 -24 27 39 27 39 0 501 0 501 -27 6 c-16 3 -68 8 -118 12
-49 3 -93 8 -97 10 -4 3 19 39 51 82 32 42 104 149 161 237 57 88 109 166 115
173 13 14 22 2 270 -363 49 -73 83 -131 76 -133 -6 -2 -11 -13 -10 -25 0 -21
1 -21 9 -2 9 22 7 26 57 -104 51 -135 52 -133 53 47 l0 162 119 154 c65 85
147 195 181 245 l62 90 83 -117 c45 -64 123 -173 173 -242z m57 240 c0 -19 -6
-26 -24 -28 -29 -4 -43 15 -30 41 15 28 54 19 54 -13z m-1555 -61 c44 -28 80
-55 80 -59 0 -4 -45 -31 -100 -59 l-99 -51 -3 -75 -3 -75 -68 46 -68 46 2 87
2 86 76 58 c42 31 81 55 89 52 7 -2 48 -28 92 -56z m1845 26 c17 -14 18 -17 5
-25 -30 -20 -58 -21 -89 -6 -17 9 -31 18 -31 20 0 2 14 13 32 24 33 21 41 20
83 -13z m-2907 -194 l90 -60 -5 -48 c-3 -26 -8 -51 -12 -55 -3 -3 -53 -20
-110 -37 -78 -23 -108 -28 -122 -20 -11 5 -25 7 -31 3 -6 -4 -8 -3 -5 3 4 6
-14 25 -39 42 l-44 33 26 31 c44 54 149 165 156 166 4 0 47 -26 96 -58z m514
-230 c43 -31 77 -59 78 -62 0 -4 -40 -23 -88 -43 l-89 -37 -76 37 c-43 21 -77
43 -77 49 1 15 153 124 165 118 5 -4 45 -31 87 -62z m2553 45 c30 -45 -20 -91
-64 -59 -25 17 -27 46 -5 67 23 23 51 20 69 -8z m-3305 -129 c15 4 18 1 15
-16 -3 -16 1 -21 16 -21 10 0 19 -4 19 -10 0 -5 5 -10 11 -10 6 0 9 16 8 38
-1 20 -1 53 1 72 2 20 6 -2 10 -50 4 -47 6 -86 6 -87 -1 -1 -26 13 -56 31
l-55 32 -1 85 0 84 3 -76 c3 -70 6 -76 23 -72z m3585 -53 c30 -20 55 -38 55
-40 0 -2 -24 -16 -52 -30 l-53 -27 -52 28 c-29 15 -53 30 -53 34 0 5 88 68 98
70 1 1 27 -15 57 -35z m630 -34 c0 -29 -32 -41 -41 -16 -9 24 4 48 23 44 12
-2 18 -12 18 -28z m-155 -87 c39 -32 70 -60 70 -63 0 -7 -130 -80 -142 -80
-13 0 -148 82 -148 90 1 5 141 110 147 110 2 0 35 -26 73 -57z m-3783 -196
c-1 -4 -29 -23 -62 -42 l-61 -34 -52 30 c-28 17 -52 34 -52 37 1 4 27 23 58
43 l57 36 57 -31 c32 -17 57 -35 55 -39z m3414 -139 c35 -46 80 -105 102 -131
22 -26 37 -50 35 -53 -3 -2 -56 -9 -118 -14 -63 -6 -115 -12 -117 -13 -9 -10
-2 -370 11 -512 8 -93 20 -260 26 -370 7 -110 13 -201 14 -202 1 -1 33 188 70
420 l69 422 37 40 c20 22 72 82 114 134 43 52 97 116 120 142 l42 47 50 -87
c27 -47 77 -133 111 -190 35 -58 62 -105 60 -106 -1 -1 -42 2 -92 6 -49 4
-111 8 -137 8 -47 1 -48 0 -48 -30 0 -43 -63 -408 -109 -634 -22 -109 -53
-228 -73 -279 -32 -83 -36 -89 -74 -102 -54 -19 -59 -18 -71 14 -8 18 -11 21
-9 7 1 -11 5 -25 9 -31 4 -7 -21 -30 -63 -58 l-71 -46 7 27 c3 16 10 44 16 63
5 19 11 49 14 65 3 17 15 43 26 59 11 16 16 26 9 22 -7 -5 -11 1 -11 16 0 19
2 20 10 8 8 -11 9 -7 4 15 -4 16 -12 35 -18 41 -6 6 -53 97 -105 202 l-95 190
-35 -26 c-20 -14 -45 -35 -57 -46 -12 -12 -34 -32 -50 -45 -16 -13 -80 -71
-141 -129 -62 -57 -113 -101 -113 -98 0 3 9 28 20 56 44 112 93 307 130 520
22 124 54 284 72 357 l32 132 135 113 c74 62 146 123 160 135 14 12 29 23 33
23 4 0 35 -37 69 -82z m-3353 -271 c4 -34 -13 -57 -42 -56 -20 2 -20 2 2 6 18
4 22 11 22 40 0 32 -2 35 -25 31 -13 -3 -22 -1 -19 4 3 5 18 8 32 6 21 -2 28
-9 30 -31z m1687 -27 l20 -25 -22 19 c-13 11 -23 24 -23 29 0 6 1 8 3 6 1 -2
11 -15 22 -29z m75 -74 c0 -3 -4 -8 -10 -11 -5 -3 -10 -1 -10 4 0 6 5 11 10
11 6 0 10 -2 10 -4z m31 -63 c13 -16 12 -17 -3 -4 -17 13 -22 21 -14 21 2 0
10 -8 17 -17z m999 -17 c0 -2 -8 -10 -17 -17 -16 -13 -17 -12 -4 4 13 16 21
21 21 13z"/>
<path d="M2351 2694 c0 -11 3 -14 6 -6 3 7 2 16 -1 19 -3 4 -6 -2 -5 -13z"/>
<path d="M2150 2115 c0 -43 3 -75 7 -72 7 7 4 139 -3 146 -2 2 -4 -31 -4 -74z"/>
<path d="M2202 2130 c0 -14 2 -19 5 -12 2 6 2 18 0 25 -3 6 -5 1 -5 -13z"/>
<path d="M2185 2080 c-3 -5 -1 -10 4 -10 6 0 11 5 11 10 0 6 -2 10 -4 10 -3 0
-8 -4 -11 -10z"/>
<path d="M2162 1910 c0 -14 2 -19 5 -12 2 6 2 18 0 25 -3 6 -5 1 -5 -13z"/>
<path d="M2152 1860 c0 -14 2 -19 5 -12 2 6 2 18 0 25 -3 6 -5 1 -5 -13z"/>
<path d="M2142 1770 c0 -19 2 -27 5 -17 2 9 2 25 0 35 -3 9 -5 1 -5 -18z"/>
<path d="M2946 1701 c-3 -5 1 -11 9 -14 9 -4 12 -1 8 9 -6 16 -10 17 -17 5z"/>
<path d="M2023 1503 c9 -2 25 -2 35 0 9 3 1 5 -18 5 -19 0 -27 -2 -17 -5z"/>
<path d="M3975 801 c-4 -7 -3 -16 2 -20 6 -3 13 -13 16 -21 5 -13 5 -13 6 0 0
8 -4 24 -8 34 -6 15 -10 16 -16 7z"/>
<path d="M4225 4800 c-18 -20 -17 -20 26 -18 38 1 39 2 11 5 -28 4 -31 7 -21
19 18 22 5 17 -16 -6z"/>
<path d="M4970 4803 c-86 -15 -139 -38 -124 -53 5 -4 50 -22 99 -40 115 -41
165 -38 265 16 39 21 69 43 67 48 -2 5 -19 17 -37 28 -43 22 -146 23 -270 1z"/>
<path d="M2511 4784 c0 -11 3 -14 6 -6 3 7 2 16 -1 19 -3 4 -6 -2 -5 -13z"/>
<path d="M1843 4693 c-35 -2 -63 -6 -63 -9 0 -3 7 -19 17 -37 9 -18 33 -85 54
-149 69 -214 141 -331 264 -431 39 -31 143 -89 292 -163 128 -63 294 -150 370
-194 75 -44 138 -78 139 -77 7 7 -120 427 -151 503 -138 333 -362 515 -685
554 -82 10 -107 10 -237 3z"/>
<path d="M4570 4636 c-163 -66 -341 -253 -542 -572 -4 -6 63 24 150 66 218
108 270 158 342 330 18 41 50 102 71 134 22 32 38 60 36 62 -1 1 -27 -7 -57
-20z"/>
<path d="M5264 4616 c-19 -19 -34 -42 -34 -51 0 -15 9 -17 65 -13 51 3 70 9
90 28 l26 25 -28 22 c-41 33 -78 30 -119 -11z"/>
<path d="M4787 4586 c-99 -36 -147 -94 -193 -235 l-32 -96 85 -3 c173 -6 305
32 359 104 21 27 104 202 104 218 0 2 -28 9 -63 15 -86 15 -213 13 -260 -3z"/>
<path d="M5190 4365 c-10 -12 -10 -15 4 -15 9 0 16 7 16 15 0 8 -2 15 -4 15
-2 0 -9 -7 -16 -15z"/>
<path d="M3249 4313 c-13 -16 -12 -17 4 -4 16 13 21 21 13 21 -2 0 -10 -8 -17
-17z"/>
<path d="M5147 4313 c-13 -15 -57 -106 -57 -119 0 -2 12 -4 26 -4 14 0 66 -12
116 -26 158 -46 255 -20 338 90 22 29 40 56 40 59 0 13 -167 7 -242 -7 -40 -8
-100 -24 -132 -35 -33 -12 -61 -19 -63 -17 -2 2 -16 -7 -30 -20 -14 -13 -29
-22 -32 -18 -3 3 2 12 13 19 10 8 15 18 11 24 -7 12 18 54 27 46 2 -3 5 2 5
10 0 19 -1 19 -20 -2z"/>
<path d="M3081 4294 c0 -11 3 -14 6 -6 3 7 2 16 -1 19 -3 4 -6 -2 -5 -13z"/>
<path d="M3070 4256 c0 -8 4 -17 9 -20 5 -4 7 3 4 14 -6 23 -13 26 -13 6z"/>
<path d="M3169 4223 c-13 -16 -12 -17 4 -4 16 13 21 21 13 21 -2 0 -10 -8 -17
-17z"/>
<path d="M3061 4214 c0 -11 3 -14 6 -6 3 7 2 16 -1 19 -3 4 -6 -2 -5 -13z"/>
<path d="M3046 4157 c-4 -20 -4 -42 0 -49 4 -7 3 -8 -4 -4 -7 4 -12 1 -12 -8
0 -8 -3 -22 -6 -31 -12 -31 44 5 57 38 11 25 10 31 -3 41 -9 6 -18 20 -20 31
-3 14 -6 8 -12 -18z"/>
<path d="M3730 4173 c-180 -30 -336 -153 -401 -314 -16 -41 -59 -251 -59 -290
0 -3 11 -4 25 -1 14 2 23 7 20 10 -3 3 10 22 28 41 19 20 96 110 172 201 152
183 250 288 309 331 l39 29 -54 -1 c-30 -1 -65 -4 -79 -6z"/>
<path d="M3157 3889 c-48 -84 -111 -264 -105 -296 5 -30 97 62 125 126 27 60
46 184 35 225 -7 27 -10 24 -55 -55z"/>
<path d="M5626 3037 c3 -10 9 -15 12 -12 3 3 0 11 -7 18 -10 9 -11 8 -5 -6z"/>
<path d="M5690 2921 c0 -6 4 -13 10 -16 6 -3 7 1 4 9 -7 18 -14 21 -14 7z"/>
<path d="M5706 2882 c-3 -5 1 -9 9 -9 8 0 12 4 9 9 -3 4 -7 8 -9 8 -2 0 -6 -4
-9 -8z"/>
</g>
</svg>
